<svg width="9" height="14" viewBox="0 0 9 14" fill="none" xmlns="http://www.w3.org/2000/svg">
<path d="M8.38177 0.00288068L6.51258 0C4.4126 0 3.0555 1.33736 3.0555 3.40727V4.97825H1.17611C1.01371 4.97825 0.882202 5.10471 0.882202 5.2607V7.53687C0.882202 7.69286 1.01386 7.81918 1.17611 7.81918H3.0555V13.5627C3.0555 13.7187 3.18702 13.845 3.34942 13.845H5.80149C5.96389 13.845 6.0954 13.7185 6.0954 13.5627V7.81918H8.29285C8.45525 7.81918 8.58676 7.69286 8.58676 7.53687L8.58766 5.2607C8.58766 5.1858 8.55662 5.11407 8.50158 5.06107C8.44655 5.00806 8.37157 4.97825 8.29359 4.97825H6.0954V3.64651C6.0954 3.00642 6.2542 2.68148 7.12229 2.68148L8.38147 2.68105C8.54372 2.68105 8.67523 2.55459 8.67523 2.39874V0.285187C8.67523 0.129487 8.54387 0.00316875 8.38177 0.00288068Z" fill="#979797"/>
</svg>
