<svg width="19" height="14" viewBox="0 0 19 14" fill="none" xmlns="http://www.w3.org/2000/svg">
<path d="M18.1613 2.42339C17.9961 2.44917 16.5756 2.87454 16.4026 2.91625C16.6722 2.61295 17.3995 1.91082 17.5263 1.54308C17.5824 1.35769 17.607 1.14614 17.503 1.07145C17.4388 1.0252 17.271 1.06387 17.1756 1.12264C16.5759 1.40785 15.9384 1.62699 15.2776 1.7751C14.6173 1.22737 13.7633 0.895082 12.8581 0.833614C11.9528 0.772147 11.0509 0.985214 10.3027 1.4373C9.71955 1.78371 9.25343 2.26183 8.95336 2.82138C8.65328 3.38093 8.53035 4.00121 8.59748 4.61697C7.91938 4.56617 7.2417 4.48504 6.61579 4.27576C5.97564 4.06232 4.74237 3.53231 4.14924 3.23243C3.32619 2.81616 2.65456 2.18872 2.05453 1.51995C2.01408 1.47682 1.96269 1.44262 1.90448 1.4201C1.84627 1.39758 1.78287 1.38737 1.71936 1.39029C1.65501 1.39364 1.59258 1.41081 1.53753 1.44029C1.48248 1.46977 1.43649 1.51066 1.4036 1.55938C1.13497 1.9455 0.957942 2.37537 0.883145 2.82315C0.808349 3.27093 0.837331 3.72738 0.96835 4.16506C1.10399 4.61936 1.33659 5.04688 1.65379 5.42487C1.51088 5.36348 1.37643 5.28792 1.25305 5.19968C1.19514 5.15788 1.12487 5.13146 1.05048 5.1235C0.976093 5.11554 0.900665 5.12638 0.833035 5.15475C0.765405 5.18312 0.708373 5.22784 0.668622 5.28367C0.628872 5.3395 0.608048 5.40413 0.608591 5.46999C0.620163 6.10027 0.820567 6.71674 1.18961 7.25727C1.55865 7.79779 2.08328 8.24327 2.71064 8.54881C2.53906 8.52978 2.36973 8.49743 2.20464 8.45214C2.13211 8.43264 2.05472 8.43194 1.98174 8.45013C1.90877 8.46831 1.84331 8.50462 1.79323 8.55468C1.74314 8.60474 1.71055 8.66644 1.69936 8.73238C1.68817 8.79831 1.69886 8.86568 1.73014 8.92641C2.00343 9.46459 2.41598 9.93923 2.9349 10.3125C3.45383 10.6858 4.06478 10.9473 4.71907 11.0764C3.45508 11.703 1.99965 11.9663 0.556827 11.8293C0.466217 11.8191 0.374413 11.8373 0.297565 11.8807C0.220717 11.9241 0.163747 11.99 0.136677 12.0667C0.108493 12.1427 0.111138 12.225 0.144163 12.2996C0.177187 12.3742 0.238556 12.4364 0.317851 12.4757C2.08454 13.3983 4.09435 13.9002 6.14905 13.9319C8.12022 13.9261 10.0456 13.4091 11.6839 12.4458C14.8109 10.6218 16.7598 7.347 16.4885 4.41718C17.1571 3.98195 17.5906 3.46938 18.0578 2.86279C18.1535 2.72934 18.3377 2.39609 18.1613 2.42339Z" fill="#979797"/>
</svg>
