<svg width="15" height="14" viewBox="0 0 15 14" fill="none" xmlns="http://www.w3.org/2000/svg">
<path d="M10.6879 0H4.00341C1.82786 0 0.0579834 1.7 0.0579834 3.78965V10.2104C0.0579834 12.2999 1.82786 13.9999 4.00341 13.9999H10.6881C12.8635 13.9999 14.6334 12.2999 14.6334 10.2104V3.78965C14.6334 1.7 12.8635 0 10.6879 0V0ZM7.34568 10.8279C5.14812 10.8279 3.36033 9.11075 3.36033 6.99995C3.36033 4.88916 5.14812 3.17196 7.34568 3.17196C9.54324 3.17196 11.331 4.88916 11.331 6.99995C11.331 9.11075 9.54324 10.8279 7.34568 10.8279ZM11.4263 4.07472C10.7769 4.07472 10.2487 3.56737 10.2487 2.9436C10.2487 2.31982 10.7769 1.81237 11.4263 1.81237C12.0757 1.81237 12.6041 2.31982 12.6041 2.9436C12.6041 3.56737 12.0757 4.07472 11.4263 4.07472Z" fill="#979797"/>
<path d="M7.34585 3.99316C5.61955 3.99316 4.21497 5.34216 4.21497 7.00037C4.21497 8.65848 5.61955 10.0076 7.34585 10.0076C9.07225 10.0076 10.4767 8.65848 10.4767 7.00037C10.4767 5.34216 9.07225 3.99316 7.34585 3.99316Z" fill="#979797"/>
<path d="M11.4263 2.6333C11.2482 2.6333 11.1031 2.77258 11.1031 2.94369C11.1031 3.1148 11.2482 3.25408 11.4263 3.25408C11.6046 3.25408 11.7496 3.11491 11.7496 2.94369C11.7496 2.77247 11.6046 2.6333 11.4263 2.6333Z" fill="#979797"/>
</svg>
