<svg width="24" height="14" viewBox="0 0 24 14" fill="none" xmlns="http://www.w3.org/2000/svg">
<path d="M22.8534 12.5766C22.7914 12.4725 22.408 11.6384 20.5632 9.92301C18.6319 8.12706 18.8913 8.41846 21.2174 5.31322C22.6344 3.42164 23.2007 2.26656 23.0233 1.77289C22.8549 1.30225 21.8127 1.42642 21.8127 1.42642L18.348 1.44644C18.348 1.44644 18.091 1.4119 17.8981 1.52605C17.7052 1.64021 17.5927 1.89856 17.5927 1.89856C17.5927 1.89856 17.0429 3.36256 16.3112 4.60726C14.7677 7.23334 14.1494 7.37203 13.897 7.21081C13.3102 6.83079 13.4577 5.68322 13.4577 4.86911C13.4577 2.32364 13.8425 1.26419 12.7079 0.987817C12.3306 0.897193 12.0537 0.837612 11.0895 0.826097C9.85296 0.81358 8.80483 0.830603 8.21254 1.121C7.81768 1.31426 7.51279 1.74585 7.69972 1.77189C7.92864 1.80243 8.44946 1.91208 8.72286 2.28759C9.07873 2.77125 9.06574 3.85974 9.06574 3.85974C9.06574 3.85974 9.27067 6.85582 8.58891 7.22783C8.12057 7.48368 7.4793 6.96247 6.10279 4.57872C5.39804 3.35555 4.86473 2.0037 4.86473 2.0037C4.86473 2.0037 4.76476 1.75336 4.57933 1.61818C4.3574 1.45495 4.04601 1.40338 4.04601 1.40338L0.751181 1.42341C0.751181 1.42341 0.256856 1.43793 0.07492 1.65323C-0.086023 1.84499 0.0624245 2.24053 0.0624245 2.24053C0.0624245 2.24053 2.64201 8.28578 5.56048 11.3334C8.24003 14.1272 11.281 13.944 11.281 13.944H12.659C12.659 13.944 13.0753 13.8974 13.2872 13.6681C13.4837 13.4573 13.4762 13.0618 13.4762 13.0618C13.4762 13.0618 13.4487 11.2093 14.3079 10.9364C15.1541 10.668 16.2407 12.7268 17.3923 13.5194C18.263 14.1202 18.9243 13.9871 18.9243 13.9871L22.0042 13.944C22.0042 13.944 23.6171 13.8459 22.8534 12.5766Z" fill="#979797"/>
</svg>
