<svg width="9" height="16" viewBox="0 0 9 16" fill="none" xmlns="http://www.w3.org/2000/svg">
<path d="M6.40215 7.99961L0.316547 14.144C0.114616 14.3479 0.00117219 14.6244 0.00117216 14.9128C0.00117214 15.2011 0.114615 15.4777 0.316546 15.6816C0.518478 15.8855 0.792356 16 1.07793 16C1.3635 16 1.63738 15.8855 1.83931 15.6816L8.68435 8.7676C8.78441 8.66669 8.8638 8.54685 8.91796 8.41494C8.97212 8.28302 9 8.14162 9 7.99882C9 7.85602 8.97212 7.71461 8.91796 7.5827C8.8638 7.45079 8.78441 7.33094 8.68435 7.23003L1.83814 0.318443C1.63621 0.114548 1.36233 -6.67706e-07 1.07676 -6.92672e-07C0.791186 -7.17638e-07 0.517308 0.114548 0.315377 0.318443C0.113445 0.522338 2.2826e-06 0.798879 2.25739e-06 1.08723C2.23218e-06 1.37558 0.113445 1.65212 0.315377 1.85602L6.40215 7.99961Z" fill="white"/>
</svg>
